<svg xmlns="http://www.w3.org/2000/svg" 
     width="240pt" height="240pt" 
     viewBox="0 0 260 240">

  <rect width="100" height="140" x="70" y="70" fill="#6ceded" />
  <path fill="#0d001a" transform="" d="
    M64,147
    L130,240
    L100,170
    c-7,-10-9-15-9-27
    s40-38,30-56
    c0,0,8,1,9,8
    c3,30-21,51-9,53
    c10,1,9-17,9-17
    s8,7,9,18
    c1,6-3,18-3,18
    s12-4,11-15
    c-1-11-10-26,1-39
    c0,0-6,15,6,27
    c13,12,14,40,-10,55
    c0,0,-20,10,-44,-25
    L130,240
    L194,146
    L130,59
    L64,147
    z"/>
  <g transform="translate(260,0) rotate(90)">
    <path d="M120,0L212,66L240,130L146,66" fill="#6f1d5c"/>
    <path d="M120,0L27,66L59,130L146,66" fill="#6d85a5"/>
    <path d="M27,66L0,130L27,195.5L59,130" fill="#6e5181"/>
    <path d="M27,195.5L120,260L147,195.5L59,130" fill="#6f1d5c"/>
    <path d="M120,260L147,195.5L240,130L212,195.5" fill="#2e0a30"/>
    <!-- <g  stroke="blue" stroke-width="1.6"> -->
    <!-- <path d="M 120,0 L 212,66"/> -->
    <!-- <path d="M 120,0 L 147,66"/> -->
    <!-- <path d="M 27,66 L 120,0"/> -->
    <!-- <path d="M 27,66 L 0,130"/> -->
    <!-- <path d="M 27,66 L 59,130"/> -->
    <!-- <path d="M 0,130 L 27,195.5"/> -->
    <!-- <path d="M 59,130 L 27,195.5"/> -->
    <!-- <path d="M 240,130 L 212,195.5"/> -->
    <!-- <path d="M 212,66 L 240,130"/> -->
    <!-- <path d="M 120,260 L 212,195.5"/> -->
    <!-- <path d="M 120,260 L 147,195.5"/> -->
    <!-- <path d="M 27,195.5 L 120,260"/> -->
    <!-- <path d="M 59,130 L 147,66" /> -->
    <!-- <path d="M 59,130 L 147,195.5"/> -->
    <!-- <path d="M 147,66 L 240,130"/> -->
    <!-- <path d="M 147,195.5 L 240,130"/> -->
    <!-- </g> -->
  </g>


<path style="fill:#F6F0E8;" d="M312.885,484.88c-24.846,0.345-49.05-19.521-42.758-54.372c0,0,5.283,19.038,20.874,19.845
			c0,0-19.906-8.552-11.193-27.268c8.713-18.715,39.854-38.403,30.334-56.153c0,0,7.925,0.544,8.713,7.904
			c3.197,29.863-20.865,51.479-8.663,53.142c9.638,1.313,8.543-16.794,8.543-16.794s7.54,6.568,8.831,12.861
			c1.29,6.294-2.991,17.951-2.991,17.951s11.537-4.089,10.735-15.368c-0.753-10.585-9.68-26.297,1.453-39.045
			c0,0-6.616,15.648,6.452,27.75c13.069,12.102,14.299,41.449,6.51,52.916C341.217,480.773,335.797,484.564,312.885,484.88z"/>


</svg>
